<svg width="81" height="77" viewBox="0 0 81 77" fill="none" xmlns="http://www.w3.org/2000/svg">
<mask id="mask0_27_815" style="mask-type:luminance" maskUnits="userSpaceOnUse" x="0" y="0" width="81" height="77">
<path d="M0.747506 39.0358V72.0712C0.747506 74.7933 3.01056 77 5.8021 77H11.7646C14.5561 77 16.8192 74.7933 16.8192 72.0712V53.909C16.8192 49.5176 22.2638 47.3185 25.4482 50.4236L51.2214 75.5553C52.1696 76.4798 53.4548 76.9986 54.7958 76.9986H75.672C78.4635 76.9986 80.7266 74.7919 80.7266 72.0698V39.0055C80.7266 37.6986 80.1938 36.4447 79.2464 35.5201L44.3001 1.4437C42.326 -0.481235 39.1254 -0.481235 37.1513 1.4437L32.4818 5.997C30.5077 7.92194 30.5077 11.0429 32.4818 12.9679L62.8327 42.5633C63.7809 43.4879 64.3129 44.7411 64.3129 46.0487V64.5217L22.1168 23.3759C20.1569 21.4647 16.9845 21.4489 15.0048 23.3408L2.26304 35.5139C1.29296 36.4412 0.746094 37.7103 0.746094 39.0345L0.747506 39.0358Z" fill="white"/>
</mask>
<g mask="url(#mask0_27_815)">
<path d="M35.2343 130.577L21.7987 56.7808L48.0036 127.241L35.2343 130.577V130.577ZM15.189 131.454H28.4084L21.7987 56.7808L15.189 131.453V131.454ZM8.3631 130.577L21.7987 56.7808L-4.40551 127.241L8.36381 130.577H8.3631ZM-10.7665 124.672L21.7987 56.7808L-22.2146 118.227L-10.7665 124.672V124.672ZM-27.6769 114.14L21.7987 56.7808L-37.0244 105.026L-27.6769 114.14V114.14ZM-41.2156 99.6985L21.7987 56.7801L-47.8253 88.5347L-41.2156 99.6985ZM-50.46 82.3327L21.7987 56.7801L-53.8818 69.8812L-50.4607 82.3327H-50.46ZM-54.7798 63.226L21.7994 56.7808L-54.7791 50.3356V63.226H-54.7798ZM-53.8811 43.6796L21.7994 56.7808L-50.4593 31.2288L-53.8811 43.6796ZM-47.8253 25.0262L21.7987 56.7808L-41.2156 13.8637L-47.8253 25.0268V25.0262ZM-37.0244 8.53671L21.7987 56.7808L-27.6769 -0.577477L-37.0244 8.5374V8.53671ZM-22.2146 -4.66505L21.7994 56.7808L-10.7665 -11.1095L-22.2146 -4.66436V-4.66505ZM-4.40551 -13.6793L21.7994 56.7808L8.3631 -17.0153L-4.40622 -13.6793H-4.40551ZM15.189 -17.8916L21.7987 56.7815L28.4084 -17.8909H15.189V-17.8916ZM35.2343 -17.0153L21.7987 56.7815L48.0029 -13.6786L35.2343 -17.0153ZM54.3639 -11.1095L21.7987 56.7815L65.812 -4.66436L54.3639 -11.1095ZM71.2742 -0.577477L21.7987 56.7815L80.6218 8.5374L71.2742 -0.577477ZM84.813 13.8637L21.7987 56.7822L91.4227 25.0275L84.813 13.8644V13.8637ZM94.0574 31.2295L21.7987 56.7822L97.4785 43.681L94.0574 31.2295ZM98.3772 50.3363L21.798 56.7815L98.3765 63.2266V50.3363H98.3772ZM97.4785 69.8826L21.798 56.7815L94.0567 82.3334L97.4785 69.8826ZM91.422 88.5361L21.798 56.7815L84.8123 99.6992L91.422 88.5361ZM80.6211 105.026L21.798 56.7815L71.2735 114.14L80.6211 105.026ZM65.8113 118.227L21.7973 56.7815L54.3625 124.672L65.8106 118.227H65.8113Z" fill="url(#paint0_radial_27_815)"/>
</g>
<defs>
<radialGradient id="paint0_radial_27_815" cx="0" cy="0" r="1" gradientUnits="userSpaceOnUse" gradientTransform="translate(21.042 50.0449) scale(69.3301 67.6044)">
<stop stop-color="#FCD416"/>
<stop offset="1" stop-color="#EF5126"/>
</radialGradient>
</defs>
</svg>
